<svg id="Layer_9" data-name="Layer 9" xmlns="http://www.w3.org/2000/svg" viewBox="0 0 283.46 283.46"><defs><style>.cls-1{fill:none;}.cls-2{fill:#5a7dbe;}.cls-2,.cls-3,.cls-4,.cls-5,.cls-6,.cls-7,.cls-8{fill-rule:evenodd;}.cls-3{fill:#9ec53b;}.cls-4{fill:#64c3d9;}.cls-5{fill:#ffd600;}.cls-6{fill:#f5a300;}.cls-7{fill:#ed7d00;}.cls-8{fill:#e74634;}</style></defs><circle class="cls-1" cx="141.73" cy="141.73" r="141.73"/><path class="cls-2" d="M283.46,90.56c0-8.53-3.14-12.53-8.27-17.68L251,48.59c-5.13-5.14-9.11-8.3-17.62-8.3-7.45,0-10.44,3.16-15.57,8.3l-9.65,9.68c14.78,14.84,42.68,42.83,57.42,57.64l9.62-9.65c5.13-5.15,8.27-8.15,8.27-15.63" transform="translate(0)"/><path class="cls-3" d="M150.73,115.91,217.8,48.59c5.13-5.14,8.12-8.3,15.57-8.3H182.93c-8.5,0-12.49,3.16-17.62,8.3l-24.2,24.29C136,78,132.84,82,132.84,90.56v.07c0,7.48,3.14,10.48,8.27,15.63l9.62,9.65" transform="translate(0)"/><path class="cls-4" d="M275.2,106.26c-2.34,2.34-46.91,47.06-67,67.28l9.65,9.68c5.13,5.15,8.12,8.3,15.58,8.3,8.5,0,12.49-3.15,17.62-8.3,2.11-2.12,22.08-22.16,24.19-24.29,5.14-5.14,8.27-9.14,8.27-17.68V90.63c0,7.48-3.13,10.48-8.27,15.63" transform="translate(0)"/><path class="cls-5" d="M217.8,183.22l-76.69-77c-5.13-5.15-8.27-8.15-8.27-15.63v50.62c0,8.54,3.14,12.54,8.27,17.69l24.2,24.29c5.13,5.14,9.12,8.29,17.62,8.29h50.44c-7.45,0-10.44-3.15-15.58-8.29" transform="translate(0)"/><path class="cls-6" d="M129.29,180.35v62.83H166.4V214.65c0-7.28-.6-12.35-6.6-18.38l-35.67-35.8c5.27,5.29,5.16,12.6,5.16,19.88" transform="translate(0)"/><path class="cls-7" d="M124.13,160.47A17.6,17.6,0,0,0,111,154.54H41.29c-.42.41.39-.41,0,0-18.7,18.74-23.34,25.64-21.59,32a.62.62,0,0,0,.06.18c2.53,3.84,7.47,4.77,11.37,4.77h98.15V180.35c0-7.28.11-14.59-5.16-19.88Z" transform="translate(0)"/><path class="cls-8" d="M103.34,40.29c-30.11,30.23-83.28,83.41-86.87,87-4.82,4.84-20.7,19.6-15.4,28.34,7.24,11.94,16.29,27.06,18.33,30.55l.36.57a1.37,1.37,0,0,1-.05-.19c-1.76-6.39,2.88-13.29,21.58-32C66.34,129,118,77.32,155.12,40.29Z" transform="translate(0)"/><path class="cls-6" d="M1.9,37.36c1.52,1.52,2.77,1.49,4.86,1.49h3.92V0H0V32.07c0,2.1.17,3.55,1.9,5.29Z" transform="translate(0)"/><path class="cls-7" d="M24.21,38.85H6.76c-2.09,0-3.34,0-4.86-1.49L12.17,47.67c1.73,1.73,3.18,1.91,5.27,1.91H34.9Z" transform="translate(0)"/><path class="cls-6" d="M80.71,26.23V42.79c0,2.1,0,3.35-1.5,4.88L89.48,37.36a4,4,0,0,0,0-5.73L79.24,21.35c1.52,1.53,1.47,2.78,1.47,4.88" transform="translate(0)"/><path class="cls-7" d="M73.51,0C71.43,0,70,.18,68.24,1.91c-1.52,1.52-1.48,2.78-1.48,4.87v3.94h16V0H73.51" transform="translate(0)"/><path class="cls-6" d="M62.83,19.41h3.93V6.78c0-2.1,0-3.35,1.48-4.87L58,12.21a4,4,0,0,0-1.21,2.86A3.93,3.93,0,0,0,58,17.93c1.51,1.51,2.75,1.48,4.84,1.48" transform="translate(0)"/><path class="cls-7" d="M80.71,26.23c0-2.1.05-3.35-1.47-4.87l0,0a5.12,5.12,0,0,0-4.63-1.91H62.83c-2.09,0-3.34,0-4.86-1.49l10.27,10.3a7,7,0,0,0,4.89,1.91h7.58Z" transform="translate(0)"/><path class="cls-7" d="M79.21,47.67c1.52-1.53,1.5-2.78,1.5-4.88V38.85h-16L54,49.58h19.9c2.09,0,3.54-.18,5.27-1.91" transform="translate(0)"/><path class="cls-7" d="M49.16,19.26a4.76,4.76,0,1,0-9.51,0v5.6h9.51v-5.6Z" transform="translate(0)"/><path class="cls-7" d="M39.65,44.33a4.76,4.76,0,1,0,9.51,0v-5.6H39.65Z" transform="translate(0)"/><path class="cls-6" d="M57.93,26.27l-9.46-9.49a4.76,4.76,0,0,1,.69,2.39V44.44a4.82,4.82,0,0,1-.69,2.38l9.46-9.5a8.27,8.27,0,0,0,1.92-5.52,8.28,8.28,0,0,0-1.92-5.53" transform="translate(0)"/><path class="cls-6" d="M39.65,44.33V19.15a4.69,4.69,0,0,1,.7-2.37l-9.47,9.49A8.3,8.3,0,0,0,29,31.8a8.29,8.29,0,0,0,1.91,5.52l9.47,9.5a4.77,4.77,0,0,1-.7-2.4v-.09" transform="translate(0)"/></svg>